HIERARCHY
ROOT Hips
{
    OFFSET   0.000000   0.000000   0.000000
    CHANNELS 6 Xposition Yposition Zposition Zrotation Xrotation Yrotation
    JOINT Chest
    {
        OFFSET   0.000000   8.007240   0.000000
        CHANNELS 3 Zrotation Xrotation Yrotation
        JOINT Chest2
        {
            OFFSET   0.000000  22.077100   0.000000
            CHANNELS 3 Zrotation Xrotation Yrotation
            JOINT Neck
            {
                OFFSET   0.000000  23.254800   0.000000
                CHANNELS 3 Zrotation Xrotation Yrotation
                JOINT Head
                {
                    OFFSET   0.000000  14.370000   1.956600
                    CHANNELS 3 Zrotation Xrotation Yrotation
                    End Site
                    {
                        OFFSET   0.000000  19.566000   0.000000
                    }
                }
            }
            JOINT LeftCollar
            {
                OFFSET   3.911900  19.017000  -0.467064
                CHANNELS 3 Zrotation Xrotation Yrotation
                JOINT LeftShoulder
                {
                    OFFSET  10.383700   0.000000   0.000000
                    CHANNELS 3 Zrotation Xrotation Yrotation
                    JOINT LeftElbow
                    {
                        OFFSET  26.662100   0.001476   0.000517
                        CHANNELS 3 Zrotation Xrotation Yrotation
                        JOINT LeftWrist
                        {
                            OFFSET  28.869000  -0.000025  -0.000106
                            CHANNELS 3 Zrotation Xrotation Yrotation
                            JOINT LeftFinger0
                            {
                                OFFSET   2.044660  -2.323460   3.252850
                                CHANNELS 3 Zrotation Xrotation Yrotation
                                JOINT LeftFinger01
                                {
                                    OFFSET   3.088130   0.000000   0.000000
                                    CHANNELS 3 Zrotation Xrotation Yrotation
                                    JOINT LeftFinger02
                                    {
                                        OFFSET   2.639460   0.000000   0.000000
                                        CHANNELS 3 Zrotation Xrotation Yrotation
                                        End Site
                                        {
                                            OFFSET   2.582190   0.000000   0.000000
                                        }
                                    }
                                }
                            }
                            JOINT LeftFinger1
                            {
                                OFFSET   8.364480   0.000000   3.252850
                                CHANNELS 3 Zrotation Xrotation Yrotation
                                JOINT LeftFinger11
                                {
                                    OFFSET   4.646930   0.000000   0.000000
                                    CHANNELS 3 Zrotation Xrotation Yrotation
                                    JOINT LeftFinger12
                                    {
                                        OFFSET   2.323460   0.000000   0.000000
                                        CHANNELS 3 Zrotation Xrotation Yrotation
                                        End Site
                                        {
                                            OFFSET   2.273050   0.000000   0.000000
                                        }
                                    }
                                }
                            }
                            JOINT LeftFinger2
                            {
                                OFFSET   8.364490   0.000015   1.078090
                                CHANNELS 3 Zrotation Xrotation Yrotation
                                JOINT LeftFinger21
                                {
                                    OFFSET   5.111620   0.000000   0.000000
                                    CHANNELS 3 Zrotation Xrotation Yrotation
                                    JOINT LeftFinger22
                                    {
                                        OFFSET   2.788160   0.000016   0.000000
                                        CHANNELS 3 Zrotation Xrotation Yrotation
                                        End Site
                                        {
                                            OFFSET   2.727660   0.000000   0.000000
                                        }
                                    }
                                }
                            }
                            JOINT LeftFinger3
                            {
                                OFFSET   7.899780   0.000017  -1.078090
                                CHANNELS 3 Zrotation Xrotation Yrotation
                                JOINT LeftFinger31
                                {
                                    OFFSET   4.646930   0.000000   0.000000
                                    CHANNELS 3 Zrotation Xrotation Yrotation
                                    JOINT LeftFinger32
                                    {
                                        OFFSET   2.323470   0.000000   0.000000
                                        CHANNELS 3 Zrotation Xrotation Yrotation
                                        End Site
                                        {
                                            OFFSET   2.273050   0.000000   0.000000
                                        }
                                    }
                                }
                            }
                            JOINT LeftFinger4
                            {
                                OFFSET   7.435090   0.000000  -3.252850
                                CHANNELS 3 Zrotation Xrotation Yrotation
                                JOINT LeftFinger41
                                {
                                    OFFSET   3.717550   0.000000   0.000000
                                    CHANNELS 3 Zrotation Xrotation Yrotation
                                    JOINT LeftFinger42
                                    {
                                        OFFSET   1.858770   0.000000   0.000000
                                        CHANNELS 3 Zrotation Xrotation Yrotation
                                        End Site
                                        {
                                            OFFSET   1.818440   0.000000   0.000000
                                        }
                                    }
                                }
                            }
                        }
                    }
                }
            }
            JOINT RightCollar
            {
                OFFSET  -3.911900  19.017000  -0.467063
                CHANNELS 3 Zrotation Xrotation Yrotation
                JOINT RightShoulder
                {
                    OFFSET -10.383700   0.000019   0.000000
                    CHANNELS 3 Zrotation Xrotation Yrotation
                    JOINT RightElbow
                    {
                        OFFSET -26.662100   0.001175   0.000102
                        CHANNELS 3 Zrotation Xrotation Yrotation
                        JOINT RightWrist
                        {
                            OFFSET -28.869000   0.000016  -0.000079
                            CHANNELS 3 Zrotation Xrotation Yrotation
                            JOINT RightFinger0
                            {
                                OFFSET  -2.044660  -2.323490   3.252850
                                CHANNELS 3 Zrotation Xrotation Yrotation
                                JOINT RightFinger01
                                {
                                    OFFSET  -3.088140   0.000000   0.000000
                                    CHANNELS 3 Zrotation Xrotation Yrotation
                                    JOINT RightFinger02
                                    {
                                        OFFSET  -2.639460   0.000000   0.000000
                                        CHANNELS 3 Zrotation Xrotation Yrotation
                                        End Site
                                        {
                                            OFFSET  -2.582190   0.000000   0.000000
                                        }
                                    }
                                }
                            }
                            JOINT RightFinger1
                            {
                                OFFSET  -8.364480   0.000000   3.252850
                                CHANNELS 3 Zrotation Xrotation Yrotation
                                JOINT RightFinger11
                                {
                                    OFFSET  -4.646930   0.000000   0.000000
                                    CHANNELS 3 Zrotation Xrotation Yrotation
                                    JOINT RightFinger12
                                    {
                                        OFFSET  -2.323470   0.000000   0.000000
                                        CHANNELS 3 Zrotation Xrotation Yrotation
                                        End Site
                                        {
                                            OFFSET  -2.273050   0.000000   0.000000
                                        }
                                    }
                                }
                            }
                            JOINT RightFinger2
                            {
                                OFFSET  -8.364480   0.000000   1.078090
                                CHANNELS 3 Zrotation Xrotation Yrotation
                                JOINT RightFinger21
                                {
                                    OFFSET  -5.111620   0.000000   0.000000
                                    CHANNELS 3 Zrotation Xrotation Yrotation
                                    JOINT RightFinger22
                                    {
                                        OFFSET  -2.788160   0.000000   0.000000
                                        CHANNELS 3 Zrotation Xrotation Yrotation
                                        End Site
                                        {
                                            OFFSET  -2.727660   0.000000   0.000000
                                        }
                                    }
                                }
                            }
                            JOINT RightFinger3
                            {
                                OFFSET  -7.899780   0.000000  -1.078090
                                CHANNELS 3 Zrotation Xrotation Yrotation
                                JOINT RightFinger31
                                {
                                    OFFSET  -4.646930   0.000000   0.000000
                                    CHANNELS 3 Zrotation Xrotation Yrotation
                                    JOINT RightFinger32
                                    {
                                        OFFSET  -2.323470   0.000000   0.000000
                                        CHANNELS 3 Zrotation Xrotation Yrotation
                                        End Site
                                        {
                                            OFFSET  -2.273050   0.000000   0.000000
                                        }
                                    }
                                }
                            }
                            JOINT RightFinger4
                            {
                                OFFSET  -7.435090   0.000000  -3.252850
                                CHANNELS 3 Zrotation Xrotation Yrotation
                                JOINT RightFinger41
                                {
                                    OFFSET  -3.717550   0.000000   0.000000
                                    CHANNELS 3 Zrotation Xrotation Yrotation
                                    JOINT RightFinger42
                                    {
                                        OFFSET  -1.858770   0.000000   0.000000
                                        CHANNELS 3 Zrotation Xrotation Yrotation
                                        End Site
                                        {
                                            OFFSET  -1.818440   0.000000   0.000000
                                        }
                                    }
                                }
                            }
                        }
                    }
                }
            }
        }
    }
    JOINT LeftHip
    {
        OFFSET   9.783040   0.000000   0.000000
        CHANNELS 3 Zrotation Xrotation Yrotation
        JOINT LeftKnee
        {
            OFFSET   0.000032 -41.789100  -0.002222
            CHANNELS 3 Zrotation Xrotation Yrotation
            JOINT LeftAnkle
            {
                OFFSET   0.000087 -41.133200  -0.000135
                CHANNELS 3 Zrotation Xrotation Yrotation
                JOINT LeftToe
                {
                    OFFSET   0.000000  -6.358960  14.674500
                    CHANNELS 3 Zrotation Xrotation Yrotation
                    End Site
                    {
                        OFFSET   0.000000   0.000000   3.913200
                    }
                }
            }
        }
    }
    JOINT RightHip
    {
        OFFSET  -9.783040   0.000000   0.000000
        CHANNELS 3 Zrotation Xrotation Yrotation
        JOINT RightKnee
        {
            OFFSET   0.000047 -41.789100  -0.000896
            CHANNELS 3 Zrotation Xrotation Yrotation
            JOINT RightAnkle
            {
                OFFSET  -0.000117 -41.133300  -0.000248
                CHANNELS 3 Zrotation Xrotation Yrotation
                JOINT RightToe
                {
                    OFFSET   0.000000  -6.358970  14.674500
                    CHANNELS 3 Zrotation Xrotation Yrotation
                    End Site
                    {
                        OFFSET   0.000000   0.000000   3.913200
                    }
                }
            }
        }
    }
}
MOTION
Frames: 5
Frame Time:   0.016667
 -8.006860  89.026200   1.991410  -2.803490 -16.770400  -0.936661   3.306910   9.753040   1.143030   6.559210  19.555200   1.742290  -1.826300  -1.823080  -0.060110  -3.007750  -3.686010   7.060360 -11.124300  -2.704960  -4.432180 -64.044800  26.644500 -10.877100  -3.253780  -8.432600 -10.480500   3.101960  -5.818730   7.413670  37.965900  27.928800 -69.722300 -17.942400  -0.002159  -0.000643  -3.971210   0.004468   0.002295 -27.702300   5.609520 -10.548600 -23.089300   0.000533   0.000983 -16.162500   0.000283   0.000435 -27.179900   3.443240  -6.671290 -28.634500   0.004871   0.002122 -19.070500   0.001102   0.005106 -27.397500   1.015990  -1.960480 -28.796600   0.001430   0.001919 -19.178500   0.001968  -0.000637 -30.091100   0.980601  -1.691620 -45.158900   0.001633  -0.003570 -30.075800   0.002099   0.000645   4.283000  -6.039230  15.562900  19.412100   8.532880  81.966500 -19.090300  -9.925790  79.971600 -19.061700  35.100300  28.591400 -39.143800  44.791700  82.081000  44.634400  -0.005085   0.005267  19.043800   0.001816   0.017326  88.996500   4.996060   0.083864  82.924100  -0.038742  -0.015199  62.193100  -0.022642   0.016427  87.670300   0.002454  -0.022772  87.544000  -0.020892  -0.007384  65.658000  -0.016190   0.020628  88.222200  -4.994080  -0.164334  87.995600  -0.016107  -0.003346  65.996700  -0.007239   0.010146  88.983800 -10.000600  -0.180896 110.000000  -0.005374   0.002846  79.999900   0.004230   0.000577   6.317100  16.431800   3.146560   3.618160  11.912000  10.531300  -8.535530  -8.120180   0.201176  -0.000000   0.000000  -0.000000   5.649070  16.963400  -8.462310   1.977730   4.725810  -8.506280  -3.793670  -4.727860   4.845810   0.000000   0.000000   0.000000
 -7.835160  89.065000   2.020600  -2.659360 -16.844500  -0.548775   3.247350   9.775760   1.208220   6.425770  19.603600   1.885060  -1.885480  -1.842420  -0.060669  -3.106550  -3.724340   7.067830 -11.184400  -2.766980  -4.468410 -64.006200  26.546200 -10.916600  -3.206300  -8.382160 -10.496900   3.143680  -5.776990   7.426810  37.953300  27.952200 -69.760400 -17.966100  -0.002136  -0.000651  -3.983070   0.004467   0.002295 -27.722700   5.625370 -10.565800 -23.108400   0.000564   0.000984 -16.175900   0.000300   0.000425 -27.185400   3.434580  -6.653030 -28.657000   0.004810   0.002069 -19.085500   0.001098   0.005054 -27.408900   1.017010  -1.960400 -28.850000   0.001421   0.002031 -19.214100   0.001967  -0.000629 -30.131200   0.980016  -1.687910 -45.218900   0.001626  -0.003527 -30.115800   0.002097   0.000645   4.276520  -6.110280  15.435500  20.411700   8.076180  81.505400 -19.475600 -11.797400  77.945400 -19.465300  34.510100  28.394800 -39.402900  44.893300  82.427300  44.243500  -0.005037   0.005268  18.639100   0.001574   0.024148  88.996500   4.996130   0.083900  84.073500  -0.027836  -0.008999  63.055100  -0.015405   0.015665  88.324800   0.002456  -0.012178  88.177400  -0.020019  -0.008024  66.133000  -0.016695   0.022501  88.539100  -4.994250  -0.133518  88.172500  -0.017147  -0.003480  66.129300  -0.007414   0.010838  88.983800 -10.000700  -0.180957 110.000000  -0.005445   0.002819  79.999900   0.004181   0.000578   6.147410  16.684300   3.164250   3.662180  11.370200  10.340800  -8.388080  -7.840000   0.131653   0.000000   0.000000  -0.000000   5.542950  17.049800  -8.533170   1.938470   4.772880  -8.698760  -3.692850  -4.784110   4.750280  -0.000000   0.000000   0.000000
 -7.649700  89.109000   2.049540  -2.505760 -16.894300  -0.173944   3.182290   9.795580   1.259140   6.283570  19.645100   1.999920  -1.949210  -1.879010  -0.063556  -3.212290  -3.797540   7.104310 -11.250400  -2.826780  -4.455360 -63.965100  26.438300 -10.920200  -3.157920  -8.291690 -10.526000   3.206390  -5.752910   7.424190  37.953700  27.905100 -69.703200 -18.051700  -0.002110  -0.000627  -4.025860   0.004467   0.002292 -27.677300   5.647590 -10.625500 -23.076600   0.000594   0.000989 -16.153600   0.000321   0.000414 -27.193700   3.400290  -6.585180 -28.673800   0.004745   0.002012 -19.096700   0.001095   0.005009 -27.398300   1.043400  -2.011490 -28.807900   0.001414   0.002142 -19.186100   0.001967  -0.000618 -30.098600   1.006860  -1.736510 -45.172200   0.001616  -0.003483 -30.084800   0.002098   0.000646   4.276470  -6.196540  15.386300  21.724900   7.695090  80.930900 -20.063300 -13.516400  76.283800 -19.862100  33.742600  28.225700 -42.262000  47.162900  86.304600  42.064800  -0.005050  -0.080310  16.514500  -0.022134  -0.064342  88.996500   4.996210   0.083940  85.221200  -0.031795  -0.009237  63.915900  -0.016456   0.018558  88.844100   0.002450  -0.003372  88.962800  -0.024015  -0.008678  66.722100  -0.017312   0.024409  88.872000  -4.994590  -0.100219  89.436400   0.009036   0.002546  67.077200   0.004098  -0.005707  88.983800 -10.000700  -0.181009 110.000000  -0.005508   0.002800  80.000000   0.004124   0.000581   5.965910  16.937000   3.189450   3.692380  10.790000  10.164100  -8.247160  -7.535560   0.059166  -0.000000   0.000000   0.000000   5.422440  17.114200  -8.627680   1.892790   4.816950  -8.892850  -3.594900  -4.842240   4.694220  -0.000000   0.000000   0.000000
 -7.456640  89.154500   2.076440  -2.349760 -16.923100   0.183728   3.117670   9.811110   1.300430   6.143930  19.677400   2.095290  -2.023510  -1.915810  -0.067759  -3.334790  -3.870900   7.184250 -11.322600  -2.889180  -4.429550 -63.939700  26.335500 -10.913900  -3.112470  -8.199130 -10.542900   3.263410  -5.741960   7.421740  37.951600  27.841200 -69.622400 -18.157800  -0.002083  -0.000604  -4.078930   0.004467   0.002289 -27.634900   5.661970 -10.670500 -23.044800   0.000625   0.000994 -16.131400   0.000343   0.000401 -27.204100   3.355720  -6.497320 -28.690800   0.004681   0.001955 -19.108100   0.001093   0.004962 -27.387700   1.068910  -2.062590 -28.765800   0.001406   0.002252 -19.158100   0.001967  -0.000607 -30.065900   1.033700  -1.785100 -45.125600   0.001606  -0.003437 -30.053700   0.002098   0.000647   4.290860  -6.290170  15.380700  22.944800   7.313710  80.405900 -20.713400 -15.273600  74.589900 -19.866000  32.863400  27.996300 -45.333200  49.232200  90.495900  40.291000  -0.005143  -0.171897  14.811900  -0.047896  -0.158249  88.996500   4.996280   0.083983  86.358500  -0.040020  -0.010908  64.768900  -0.019688   0.024069  89.093500   0.002438   0.001553  89.825600  -0.030203  -0.009355  67.369200  -0.017677   0.025467  89.056300  -4.994910  -0.081484  90.938200   0.035219   0.008573  68.203600   0.015611  -0.022272  88.983700 -10.000700  -0.181060 110.000000  -0.005570   0.002778  80.000000   0.004066   0.000584   5.781130  17.196300   3.224900   3.705640  10.169100   9.997960  -8.104470  -7.215210  -0.015094  -0.000000   0.000000   0.000000   5.292630  17.162800  -8.730820   1.844880   4.855230  -9.079210  -3.496650  -4.899140   4.656010  -0.000000   0.000000   0.000000
 -7.261620  89.198000   2.100810  -2.190910 -16.929900   0.521822   3.056200   9.815650   1.339890   6.010030  19.687500   2.188410  -2.115960  -1.936070  -0.071667  -3.487930  -3.910680   7.298670 -11.398000  -2.953250  -4.406520 -63.946200  26.259700 -10.908600  -3.064060  -8.130030 -10.484400   3.304260  -5.788080   7.454870  37.944600  27.812300 -69.592800 -18.291900  -0.002054  -0.000617  -4.145960   0.004465   0.002295 -27.684200   5.561630 -10.469900 -23.067200   0.000659   0.000995 -16.147000   0.000358   0.000388 -27.216800   3.300610  -6.386220 -28.727900   0.004621   0.001896 -19.132800   0.001091   0.004909 -27.397400   0.972061  -1.875190 -28.784300   0.001399   0.002362 -19.170400   0.001967  -0.000593 -30.074200   0.921920  -1.591400 -45.131500   0.001598  -0.003390 -30.057600   0.002099   0.000647   4.329800  -6.394860  15.397700  23.857000   6.911210  80.135500 -21.483900 -17.081600  72.436700 -19.255400  31.958900  27.568700 -45.600200  49.415100  90.882100  40.229500  -0.005256  -0.178907  14.748500  -0.050534  -0.164569  88.996500   4.996350   0.084030  87.462200  -0.051137  -0.015439  65.596700  -0.025864   0.030564  89.046800   0.002420   0.001434  90.766100  -0.034332  -0.009712  68.074600  -0.017629   0.024463  89.026600  -4.995210  -0.081597  91.577900   0.035134   0.008322  68.683400   0.015418  -0.022295  88.983700 -10.000700  -0.181123 110.000000  -0.005637   0.002746  79.999900   0.004018   0.000589   5.595440  17.461200   3.272680   3.696370   9.508530   9.847910  -7.958310  -6.886550  -0.097951   0.000000   0.000000  -0.000000   5.154830  17.195400  -8.830320   1.795990   4.882900  -9.255850  -3.394780  -4.951600   4.626770  -0.000000   0.000000  -0.000000
